<svg id="Layer_1" data-name="Layer 1" xmlns="http://www.w3.org/2000/svg" viewBox="0 0 638 129.48"><defs><style>.cls-1{fill:#ee2737;}.cls-1,.cls-2,.cls-3{fill-rule:evenodd;}.cls-2{fill:#fff;}.cls-3{fill:#1c1d1d;}</style></defs><title>GoFood Logo Vector</title><path class="cls-1" d="M304.49,502.14a61.75,61.75,0,1,1-61.75-61.74,61.75,61.75,0,0,1,61.75,61.74" transform="translate(-181 -435.26)"/><path class="cls-2" d="M240.9,497.26a20,20,0,0,1-9.41,16.33A9.24,9.24,0,0,0,226.9,521l-.48,10.42a5,5,0,1,1-9.94,0L216,520.63a9.41,9.41,0,0,0-4.48-7.51A21.06,21.06,0,0,1,202,495.75a114.93,114.93,0,0,1,1.39-21.08,4.45,4.45,0,0,1,5.14-3.88,4.72,4.72,0,0,1,3.66,5.46,81.67,81.67,0,0,0-1.24,14.6,3.12,3.12,0,0,0,3,3.24,3.16,3.16,0,0,0,3.07-3.21l0-18.31a4.56,4.56,0,0,1,5.21-4.67,4.86,4.86,0,0,1,3.72,4.92l0,18.05a3,3,0,1,0,6.06,0,80.05,80.05,0,0,0-1.24-14.61,4.7,4.7,0,0,1,3.65-5.45,4.48,4.48,0,0,1,5.14,3.87,113.17,113.17,0,0,1,1.34,22.59Zm25-29.42c11.76,0,17.65,17.79,17.65,29.55a18.42,18.42,0,0,1-8.16,15.07,8.84,8.84,0,0,0-4,6.87l-.57,12.1a5,5,0,1,1-9.91,0l-.56-12.09a8.8,8.8,0,0,0-4-6.86,18.47,18.47,0,0,1-8.16-15.09c0-11.75,5.88-29.54,17.65-29.54Z" transform="translate(-181 -435.26)"/><path class="cls-3" d="M425.07,496.09c0-20.49,16.21-36.31,38.77-36.31s38.78,15.82,38.78,36.31-16.08,36.31-38.78,36.31-38.77-15.82-38.77-36.31Zm58.36,0c0-11.15-7.65-19.45-19.59-19.45s-19.58,8.3-19.58,19.45,7.65,19.45,19.58,19.45,19.59-8.3,19.59-19.45Zm-88.35-36.33h18.53v70.7c0,19.57-15,34.28-36.93,34.28-14.42,0-27-5-35.41-13.94l12.49-12c5.45,5.21,11.73,8.25,22.52,8.25s18.8-6.92,18.8-16.32v-7h-.27c-4.82,5.35-12.78,8.35-22.31,8.35-21.28,0-37.2-15.4-37.2-36.41,0-20.23,15.53-35.89,36.54-35.89,9.79,0,18,2.87,23,8.09h.27v-8.11Zm-.78,40.08v-8.08c0-8-8.75-15-18.8-15-12.66,0-20.88,7.71-20.88,18.93,0,12.14,7.69,19.45,20.09,19.45,11,0,19.59-6.79,19.59-15.28ZM524.74,478H508.29V461.71h16.45v-7c0-12.05,8.43-19.44,22.56-19.44h18v16.46H549.63c-3.77,0-5.7,1.81-5.7,5.31v4.67H569.6V478H543.93V530.4H524.74V478ZM609,476.61c-11.8,0-19.58,8.17-19.58,19.44s7.78,19.44,19.58,19.44,19.58-8.16,19.58-19.44S620.8,476.61,609,476.61Zm0-16.85c22.42,0,38.76,15.94,38.76,36.29s-16.34,36.3-38.76,36.3c-21.91.38-39.14-16.21-38.76-36.3C569.86,476,587.09,459.36,609,459.76Zm85.16,16.85c-11.79,0-19.57,8.17-19.57,19.44s7.78,19.44,19.57,19.44,19.58-8.16,19.58-19.44-7.78-19.44-19.59-19.44Zm0-16.85c22.43,0,38.76,15.94,38.76,36.29s-16.33,36.3-38.76,36.3c-21.9.38-39.14-16.21-38.75-36.3C655,476,672.26,459.36,694.16,459.76Zm105.65,31.75c0-8.16-9.08-14.9-19.58-14.9-12,0-20.48,7.91-20.48,19.44,0,11.8,8,19.32,20.49,19.32,10.89,0,19.57-6.75,19.57-15.18Zm-22.55-31.75c9.19,0,17,2.58,22.28,7.39h.27V435.78H819V530.4H801.23v-6.74H801c-5.19,5.7-13.23,8.69-23.21,8.69-21.64,0-37.2-15-37.2-36.3C740.57,475.44,756.39,459.76,777.26,459.76Z" transform="translate(-181 -435.26)"/></svg>